<svg width="300" height="150" viewBox="0 0 1200 553" fill="none" xmlns="http://www.w3.org/2000/svg">
<path d="M144.399 0H0V307.238H151.422C215.941 307.238 258.953 271.247 258.953 218.139C258.953 188.293 240.08 162.836 210.674 148.791C233.936 134.307 248.419 111.044 248.419 84.2709C248.419 34.674 205.846 0 144.399 0ZM63.641 254.568V175.125H146.594C176 175.125 194.873 191.365 194.873 214.627C194.873 239.206 176 254.568 146.594 254.568H63.641ZM63.641 125.529V52.6693H140.449C167.222 52.6693 185.217 66.7145 185.217 89.0989C185.217 111.483 167.222 125.529 140.449 125.529H63.641Z" fill="#654BFF"/>
<path d="M404.528 325.233L509.865 78.5651H444.907L379.95 234.378L323.331 78.5651H257.057L346.154 309.432L342.643 317.772C333.865 338.4 318.942 348.934 297.436 348.934C288.219 348.934 282.074 348.495 276.368 347.179V398.97C282.074 400.726 292.608 401.604 303.142 401.604C352.738 401.604 381.266 380.097 404.528 325.233Z" fill="#654BFF"/>
<path d="M715.704 256.763H592.811L708.682 121.139V78.5651H517.32V129.04H631.435L516.442 264.663V307.238L715.704 309.432V256.763Z" fill="#654BFF"/>
<path d="M930.662 278.708L891.161 242.718C878.872 254.568 860.438 261.152 840.687 261.152C809.086 261.152 784.069 241.84 775.729 213.311H946.024V197.51C946.024 127.284 897.745 74.6149 832.787 74.6149C766.513 74.6149 715.161 126.845 715.161 193.121C715.161 259.835 768.707 311.627 838.054 311.627C874.483 311.627 902.573 301.532 930.662 278.708ZM775.291 170.297C782.752 142.207 803.819 124.212 831.47 124.212C857.804 124.212 879.75 143.524 887.211 170.297H775.291Z" fill="#654BFF"/>
<path d="M1019.05 103.583V78.5651H958.924V307.238H1019.05V159.325C1030.03 136.94 1051.09 125.09 1074.36 125.09C1085.33 125.09 1096.3 127.284 1105.08 131.234V78.5651C1099.37 75.0538 1091.91 73.7371 1080.06 73.2981C1055.04 73.2981 1033.54 83.832 1019.05 103.583Z" fill="#654BFF"/>
<path d="M1137.02 30.54H1149.12L1150.49 23.5H1116.06V30.54H1129.04V62H1137.02V30.54Z" fill="#654BFF"/>
<path d="M1196.21 23.5H1185.98L1175.42 44.18L1164.86 23.5H1154.63V62H1162V33.675L1175.31 59.25L1188.67 33.73V62H1196.21V23.5Z" fill="#654BFF"/>
<path d="M54.1017 485.481L55.8797 476.961H9.77895V445.808H61.8487L63.6267 437.162H0V526.17H62.3567L64.1347 517.524H9.77895V485.481H54.1017Z" fill="#4C4F5F"/>
<path d="M131.725 462.466H121.692L99.9753 513.963L78.2584 462.466H67.8445L95.4033 526.17H104.293L131.725 462.466Z" fill="#4C4F5F"/>
<path d="M190.166 519.431L184.324 513.2C180.006 516.888 173.402 519.05 166.798 519.05C154.225 519.05 144.319 509.767 142.922 497.179H195.119V494.254C195.119 475.944 181.911 461.448 165.02 461.448C147.494 461.448 133.651 475.944 133.651 494.254C133.651 512.946 148.002 527.315 166.417 527.315C175.561 527.315 183.054 524.772 190.166 519.431ZM143.176 489.677C144.954 477.978 153.717 469.713 164.766 469.713C175.307 469.713 184.07 478.36 185.721 489.677H143.176Z" fill="#4C4F5F"/>
<path d="M216.385 471.494V462.466H206.987V526.17H216.385V482.556C219.687 474.037 225.656 469.459 233.53 469.459C235.689 469.459 237.848 469.841 240.134 470.603V461.957C238.229 461.321 236.578 461.067 234.165 461.067C226.418 461.067 220.195 464.881 216.385 471.494Z" fill="#4C4F5F"/>
<path d="M275.245 535.707L306.868 462.466H296.708L274.483 514.726L253.91 462.466H243.496L269.403 526.043L265.72 534.435C262.672 541.175 258.735 544.353 253.021 544.353C250.735 544.353 249.337 544.226 247.687 543.845V552.364C249.083 552.746 251.242 553 253.655 553C263.815 553 269.784 548.041 275.245 535.707Z" fill="#4C4F5F"/>
<path d="M333.957 509.513V470.476H351.356L353.134 462.466H333.957V443.901H324.686V462.466H310.97V470.476H324.686V511.929C324.686 521.974 330.782 527.315 341.831 527.315C345.514 527.315 349.705 526.806 353.007 525.662V517.397C349.832 518.668 347.292 519.05 343.736 519.05C336.751 519.05 333.957 516.379 333.957 509.513Z" fill="#4C4F5F"/>
<path d="M371.324 469.968V435H361.926V526.17H371.324V479.25C375.134 473.019 381.23 469.459 388.85 469.459C399.772 469.459 406.63 476.453 406.63 487.769V526.17H415.901V485.862C415.901 471.239 405.868 461.194 391.39 461.194C383.135 461.194 376.277 464.119 371.324 469.968Z" fill="#4C4F5F"/>
<path d="M435.056 450.259C438.612 450.259 441.406 447.334 441.406 443.901C441.406 440.341 438.612 437.543 435.056 437.543C431.627 437.543 428.706 440.341 428.706 443.901C428.706 447.334 431.627 450.259 435.056 450.259ZM430.357 526.17H439.755V462.466H430.357V526.17Z" fill="#4C4F5F"/>
<path d="M463.91 469.968V462.466H454.512V526.17H463.91V479.25C467.72 473.019 473.816 469.459 481.436 469.459C492.358 469.459 499.216 476.453 499.216 487.769V526.17H508.487V485.862C508.487 471.239 498.454 461.194 483.976 461.194C475.721 461.194 468.863 464.119 463.91 469.968Z" fill="#4C4F5F"/>
<path d="M551.772 526.679C559.265 526.679 566.25 524.136 571.965 519.304V527.823C571.965 539.013 565.615 544.862 553.55 544.862C546.946 544.862 540.723 543.082 533.103 539.013L529.039 546.388C536.151 550.584 545.041 553 553.931 553C571.584 553 581.363 543.972 581.363 527.696V462.466H572.092V468.823C566.25 463.991 559.265 461.321 552.026 461.321C533.992 461.321 520.022 475.69 520.022 494C520.022 512.438 534.119 526.679 551.772 526.679ZM529.293 494C529.293 480.267 539.326 469.713 552.534 469.713C560.535 469.713 567.647 472.892 571.965 478.36V509.64C567.647 515.235 560.662 518.414 552.534 518.414C539.453 518.414 529.293 507.733 529.293 494Z" fill="#4C4F5F"/>
<path d="M627.917 450.259C631.473 450.259 634.267 447.334 634.267 443.901C634.267 440.341 631.473 437.543 627.917 437.543C624.488 437.543 621.567 440.341 621.567 443.901C621.567 447.334 624.488 450.259 627.917 450.259ZM623.218 526.17H632.616V462.466H623.218V526.17Z" fill="#4C4F5F"/>
<path d="M646.61 511.293L640.895 517.397C647.626 523.754 657.151 527.315 667.692 527.315C682.297 527.315 693.473 518.922 693.473 507.86C693.473 498.069 687.123 492.347 674.423 490.567L663.374 489.041C654.992 487.769 651.563 485.099 651.563 479.631C651.563 473.401 657.532 469.078 666.295 469.078C673.28 469.078 679.757 471.366 686.869 476.198L691.822 469.841C683.948 464.119 676.074 461.448 666.803 461.448C652.833 461.448 642.927 469.332 642.927 480.013C642.927 489.677 649.023 495.272 661.723 497.179L672.772 498.705C680.9 499.849 684.583 502.901 684.583 508.369C684.583 515.108 677.471 519.812 667.311 519.812C659.818 519.812 652.452 516.761 646.61 511.293Z" fill="#4C4F5F"/>
<path d="M749.978 527.315C757.979 527.315 764.837 524.899 770.552 519.94V526.17H779.696V483.319C779.696 469.078 770.679 461.194 754.55 461.194C746.803 461.194 739.31 463.101 730.166 467.552L733.722 474.8C741.342 470.858 747.438 469.205 753.661 469.205C764.71 469.205 770.552 474.418 770.552 484.591V492.983C765.091 490.185 758.614 488.659 751.883 488.659C736.262 488.659 726.483 496.162 726.483 508.114C726.483 519.558 736.008 527.315 749.978 527.315ZM735.5 507.86C735.5 500.358 741.977 495.526 752.137 495.526C759.503 495.526 765.345 497.052 770.552 500.612V512.565C765.472 517.651 759.249 519.94 751.629 519.94C742.104 519.94 735.5 514.981 735.5 507.86Z" fill="#4C4F5F"/>
<path d="M838.402 509.513V470.476H855.801L857.579 462.466H838.402V443.901H829.131V462.466H815.415V470.476H829.131V511.929C829.131 521.974 835.227 527.315 846.276 527.315C849.959 527.315 854.15 526.806 857.452 525.662V517.397C854.277 518.668 851.737 519.05 848.181 519.05C841.196 519.05 838.402 516.379 838.402 509.513Z" fill="#4C4F5F"/>
<path d="M886.438 527.315C894.439 527.315 901.297 524.899 907.012 519.94V526.17H916.156V483.319C916.156 469.078 907.139 461.194 891.01 461.194C883.263 461.194 875.77 463.101 866.626 467.552L870.182 474.8C877.802 470.858 883.898 469.205 890.121 469.205C901.17 469.205 907.012 474.418 907.012 484.591V492.983C901.551 490.185 895.074 488.659 888.343 488.659C872.722 488.659 862.943 496.162 862.943 508.114C862.943 519.558 872.468 527.315 886.438 527.315ZM871.96 507.86C871.96 500.358 878.437 495.526 888.597 495.526C895.963 495.526 901.805 497.052 907.012 500.612V512.565C901.932 517.651 895.709 519.94 888.089 519.94C878.564 519.94 871.96 514.981 871.96 507.86Z" fill="#4C4F5F"/>
<path d="M992.435 494.254C992.435 475.817 978.465 461.448 960.431 461.448C952.43 461.448 945.318 464.119 939.984 469.205V435H930.586V526.17H939.857V519.812C945.572 524.517 952.811 527.188 960.304 527.188C978.465 527.188 992.435 512.819 992.435 494.254ZM939.984 510.149V478.614C944.429 473.019 951.541 469.713 959.542 469.713C972.877 469.713 983.164 480.394 983.164 494.381C983.164 508.369 973.004 518.922 959.542 518.922C951.668 518.922 944.429 515.616 939.984 510.149Z" fill="#4C4F5F"/>
<path d="M1004.23 435V526.17H1013.62V435H1004.23Z" fill="#4C4F5F"/>
<path d="M1081.97 519.431L1076.13 513.2C1071.81 516.888 1065.21 519.05 1058.61 519.05C1046.03 519.05 1036.13 509.767 1034.73 497.179H1086.93V494.254C1086.93 475.944 1073.72 461.448 1056.83 461.448C1039.3 461.448 1025.46 475.944 1025.46 494.254C1025.46 512.946 1039.81 527.315 1058.23 527.315C1067.37 527.315 1074.86 524.772 1081.97 519.431ZM1034.98 489.677C1036.76 477.978 1045.53 469.713 1056.57 469.713C1067.12 469.713 1075.88 478.36 1077.53 489.677H1034.98Z" fill="#4C4F5F"/>
<path d="M1099.52 513.963C1095.97 513.963 1093.05 516.888 1093.05 520.448C1093.05 524.009 1095.97 526.933 1099.52 526.933C1103.08 526.933 1106 524.009 1106 520.448C1106 516.888 1103.08 513.963 1099.52 513.963Z" fill="#4C4F5F"/>
</svg>
