<svg width="1106" height="403" viewBox="0 0 1106 403" fill="none" xmlns="http://www.w3.org/2000/svg">
<path d="M144.52 0H0V307.238H151.548C216.121 307.238 259.169 271.247 259.169 218.139C259.169 188.293 240.28 162.836 210.849 148.791C234.131 134.307 248.627 111.044 248.627 84.2709C248.627 34.674 206.017 0 144.52 0ZM63.6941 254.568V175.125H146.716C176.147 175.125 195.036 191.365 195.036 214.627C195.036 239.206 176.147 254.568 146.716 254.568H63.6941ZM63.6941 125.529V52.6693H140.566C167.362 52.6693 185.372 66.7145 185.372 89.0989C185.372 111.483 167.362 125.529 140.566 125.529H63.6941Z" fill="#654BFF"/>
<path d="M404.865 325.233L510.29 78.5651H445.278L380.266 234.378L323.601 78.5651H257.271L346.443 309.432L342.928 317.772C334.143 338.4 319.208 348.934 297.684 348.934C288.459 348.934 282.309 348.495 276.599 347.179V398.97C282.309 400.726 292.852 401.604 303.394 401.604C353.032 401.604 381.584 380.097 404.865 325.233Z" fill="#654BFF"/>
<path d="M716.301 256.763H593.305L709.272 121.139V78.5651H517.751V129.04H631.961L516.872 264.663V307.238L716.301 309.432V256.763Z" fill="#654BFF"/>
<path d="M931.438 278.708L891.904 242.718C879.604 254.568 861.155 261.152 841.388 261.152C809.76 261.152 784.722 241.84 776.376 213.311H946.812V197.51C946.812 127.284 898.493 74.6149 833.481 74.6149C767.151 74.6149 715.757 126.845 715.757 193.121C715.757 259.835 769.348 311.627 838.752 311.627C875.212 311.627 903.325 301.532 931.438 278.708ZM775.937 170.297C783.404 142.207 804.489 124.212 832.163 124.212C858.519 124.212 880.483 143.524 887.95 170.297H775.937Z" fill="#654BFF"/>
<path d="M1019.9 103.583V78.5651H959.723V307.238H1019.9V159.325C1030.88 136.94 1051.97 125.09 1075.25 125.09C1086.23 125.09 1097.21 127.284 1106 131.234V78.5651C1100.29 75.0538 1092.82 73.7371 1080.96 73.2981C1055.92 73.2981 1034.4 83.832 1019.9 103.583Z" fill="#654BFF"/>
</svg>
