<svg width="1250" height="663" viewBox="0 0 1250 663" fill="none" xmlns="http://www.w3.org/2000/svg">
<g clip-path="url(#clip0_544_209)">
<mask id="mask0_544_209" style="mask-type:alpha" maskUnits="userSpaceOnUse" x="0" y="0" width="1250" height="664">
<path d="M22 0C9.84973 0 0 9.60044 0 21.7507C0 132.824 0 542.25 0 641.32C0 653.47 9.20902 663.01 21.3593 663.01C200.049 663.01 1080.07 663.01 1228.67 663.01C1240.82 663.01 1250 653.16 1250 641.01V93.8996C1250 81.7493 1240.15 71.8996 1228 71.8996H383.087C379.826 71.8996 376.921 69.9058 375.522 66.9597C356.762 27.4417 309.4 0 263 0H22Z" fill="white"/>
</mask>
<g mask="url(#mask0_544_209)">
<path d="M22 0C9.84973 0 0 9.60044 0 21.7507C0 132.824 0 542.25 0 641.32C0 653.47 9.20902 663.01 21.3593 663.01C200.049 663.01 1080.07 663.01 1228.67 663.01C1240.82 663.01 1250 653.16 1250 641.01V93.8996C1250 81.7493 1240.15 71.8996 1228 71.8996H383.087C379.826 71.8996 376.921 69.9058 375.522 66.9597C356.762 27.4417 309.4 0 263 0H22Z" fill="white"/>
<path opacity="0.06" fill-rule="evenodd" clip-rule="evenodd" d="M748.08 215.926L1214.67 391.306L1353.62 718.206H430.078V558.403L748.08 215.926ZM743.535 291.363L498.096 555.692L850.976 658.869L743.535 291.363ZM718.708 670.206L478.078 599.849V670.206H718.708ZM948.072 670.206H1281.06L1187.78 450.764L948.072 670.206ZM1151.55 418.86L791.222 283.421L898.533 650.48L1151.55 418.86Z" fill="#654BFF"/>
<path d="M216.52 71.8997H72V378.709H223.548C288.121 378.709 331.169 342.768 331.169 289.734C331.169 259.93 312.28 234.509 282.849 220.483C306.131 206.019 320.627 182.789 320.627 156.053C320.627 106.525 278.017 71.8997 216.52 71.8997ZM135.694 326.113V246.781H218.716C248.147 246.781 267.036 262.998 267.036 286.228C267.036 310.773 248.147 326.113 218.716 326.113H135.694ZM135.694 197.253V124.496H212.566C239.362 124.496 257.372 138.521 257.372 160.874C257.372 183.228 239.362 197.253 212.566 197.253H135.694Z" fill="#654BFF"/>
<path d="M476.865 396.679L582.29 150.355H517.278L452.266 305.951L395.601 150.355H329.271L418.443 380.9L414.928 389.228C406.143 409.828 391.208 420.347 369.684 420.347C360.459 420.347 354.309 419.909 348.599 418.594V470.313C354.309 472.067 364.852 472.943 375.394 472.943C425.032 472.943 453.584 451.467 476.865 396.679Z" fill="#654BFF"/>
<path d="M788.301 328.305H665.305L781.272 192.87V150.355H589.751V200.76H703.961L588.872 336.194V378.709L788.301 380.9V328.305Z" fill="#654BFF"/>
<path d="M1003.44 350.219L963.904 314.279C951.604 326.113 933.155 332.688 913.388 332.688C881.76 332.688 856.722 313.402 848.376 284.913H1018.81V269.134C1018.81 199.006 970.493 146.41 905.481 146.41C839.151 146.41 787.757 198.568 787.757 264.751C787.757 331.373 841.348 383.092 910.752 383.092C947.212 383.092 975.325 373.011 1003.44 350.219ZM847.937 241.96C855.404 213.909 876.489 195.938 904.163 195.938C930.519 195.938 952.483 215.223 959.95 241.96H847.937Z" fill="#654BFF"/>
<path d="M1091.9 175.338V150.355H1031.72V378.709H1091.9V231.002C1102.88 208.649 1123.97 196.815 1147.25 196.815C1158.23 196.815 1169.21 199.006 1178 202.951V150.355C1172.29 146.849 1164.82 145.534 1152.96 145.096C1127.92 145.096 1106.4 155.615 1091.9 175.338Z" fill="#654BFF"/>
<path d="M126.102 556.703L127.88 548.196H81.779V517.086H133.849L135.627 508.452H72V597.336H134.357L136.135 588.702H81.779V556.703H126.102Z" fill="#4C4F5F"/>
<path d="M203.725 533.72H193.692L171.975 585.146L150.258 533.72H139.844L167.403 597.336H176.293L203.725 533.72Z" fill="#4C4F5F"/>
<path d="M262.166 590.606L256.324 584.384C252.006 588.067 245.402 590.225 238.798 590.225C226.225 590.225 216.319 580.956 214.922 568.385H267.119V565.465C267.119 547.18 253.911 532.704 237.02 532.704C219.494 532.704 205.651 547.18 205.651 565.465C205.651 584.131 220.002 598.479 238.417 598.479C247.561 598.479 255.054 595.939 262.166 590.606ZM215.176 560.894C216.954 549.212 225.717 540.958 236.766 540.958C247.307 540.958 256.07 549.593 257.721 560.894H215.176Z" fill="#4C4F5F"/>
<path d="M288.385 542.736V533.72H278.987V597.336H288.385V553.783C291.687 545.275 297.656 540.704 305.53 540.704C307.689 540.704 309.848 541.085 312.134 541.847V533.212C310.229 532.577 308.578 532.324 306.165 532.324C298.418 532.324 292.195 536.133 288.385 542.736Z" fill="#4C4F5F"/>
<path d="M347.245 606.86L378.868 533.72H368.708L346.483 585.908L325.91 533.72H315.496L341.403 597.209L337.72 605.59C334.672 612.32 330.735 615.494 325.021 615.494C322.735 615.494 321.338 615.367 319.687 614.986V623.494C321.084 623.875 323.242 624.129 325.655 624.129C335.815 624.129 341.784 619.176 347.245 606.86Z" fill="#4C4F5F"/>
<path d="M405.957 580.702V541.72H423.356L425.134 533.72H405.957V515.182H396.686V533.72H382.97V541.72H396.686V583.115C396.686 593.146 402.782 598.479 413.831 598.479C417.514 598.479 421.705 597.971 425.007 596.828V588.575C421.832 589.845 419.292 590.225 415.736 590.225C408.751 590.225 405.957 587.559 405.957 580.702Z" fill="#4C4F5F"/>
<path d="M443.324 541.212V506.293H433.926V597.336H443.324V550.481C447.134 544.259 453.23 540.704 460.85 540.704C471.772 540.704 478.63 547.688 478.63 558.989V597.336H487.901V557.084C487.901 542.482 477.868 532.451 463.39 532.451C455.135 532.451 448.277 535.371 443.324 541.212Z" fill="#4C4F5F"/>
<path d="M507.056 521.53C510.612 521.53 513.406 518.61 513.406 515.182C513.406 511.626 510.612 508.833 507.056 508.833C503.627 508.833 500.706 511.626 500.706 515.182C500.706 518.61 503.627 521.53 507.056 521.53ZM502.357 597.336H511.755V533.72H502.357V597.336Z" fill="#4C4F5F"/>
<path d="M535.91 541.212V533.72H526.512V597.336H535.91V550.481C539.72 544.259 545.816 540.704 553.436 540.704C564.358 540.704 571.216 547.688 571.216 558.989V597.336H580.487V557.084C580.487 542.482 570.454 532.451 555.976 532.451C547.721 532.451 540.863 535.371 535.91 541.212Z" fill="#4C4F5F"/>
<path d="M623.772 597.844C631.265 597.844 638.25 595.305 643.965 590.479V598.987C643.965 610.161 637.615 616.002 625.55 616.002C618.946 616.002 612.723 614.224 605.103 610.161L601.039 617.526C608.151 621.716 617.041 624.129 625.931 624.129C643.584 624.129 653.363 615.113 653.363 598.86V533.72H644.092V540.069C638.25 535.244 631.265 532.578 624.026 532.578C605.992 532.578 592.022 546.926 592.022 565.211C592.022 583.623 606.119 597.844 623.772 597.844ZM601.293 565.211C601.293 551.497 611.326 540.958 624.534 540.958C632.535 540.958 639.647 544.132 643.965 549.593V580.829C639.647 586.416 632.662 589.591 624.534 589.591C611.453 589.591 601.293 578.924 601.293 565.211Z" fill="#4C4F5F"/>
<path d="M699.917 521.53C703.473 521.53 706.267 518.61 706.267 515.182C706.267 511.626 703.473 508.833 699.917 508.833C696.488 508.833 693.567 511.626 693.567 515.182C693.567 518.61 696.488 521.53 699.917 521.53ZM695.218 597.336H704.616V533.72H695.218V597.336Z" fill="#4C4F5F"/>
<path d="M718.61 582.48L712.895 588.575C719.626 594.924 729.151 598.479 739.692 598.479C754.297 598.479 765.473 590.098 765.473 579.051C765.473 569.274 759.123 563.56 746.423 561.782L735.374 560.259C726.992 558.989 723.563 556.322 723.563 550.862C723.563 544.64 729.532 540.323 738.295 540.323C745.28 540.323 751.757 542.609 758.869 547.434L763.822 541.085C755.948 535.371 748.074 532.704 738.803 532.704C724.833 532.704 714.927 540.577 714.927 551.243C714.927 560.894 721.023 566.481 733.723 568.385L744.772 569.909C752.9 571.052 756.583 574.099 756.583 579.559C756.583 586.289 749.471 590.987 739.311 590.987C731.818 590.987 724.452 587.94 718.61 582.48Z" fill="#4C4F5F"/>
<path d="M821.978 598.479C829.979 598.479 836.837 596.066 842.552 591.114V597.336H851.696V554.545C851.696 540.323 842.679 532.451 826.55 532.451C818.803 532.451 811.31 534.355 802.166 538.799L805.722 546.037C813.342 542.101 819.438 540.45 825.661 540.45C836.71 540.45 842.552 545.656 842.552 555.814V564.195C837.091 561.401 830.614 559.878 823.883 559.878C808.262 559.878 798.483 567.369 798.483 579.305C798.483 590.733 808.008 598.479 821.978 598.479ZM807.5 579.051C807.5 571.56 813.977 566.735 824.137 566.735C831.503 566.735 837.345 568.258 842.552 571.814V583.75C837.472 588.829 831.249 591.114 823.629 591.114C814.104 591.114 807.5 586.162 807.5 579.051Z" fill="#4C4F5F"/>
<path d="M910.402 580.702V541.72H927.801L929.579 533.72H910.402V515.182H901.131V533.72H887.415V541.72H901.131V583.115C901.131 593.146 907.227 598.479 918.276 598.479C921.959 598.479 926.15 597.971 929.452 596.828V588.575C926.277 589.845 923.737 590.225 920.181 590.225C913.196 590.225 910.402 587.559 910.402 580.702Z" fill="#4C4F5F"/>
<path d="M958.438 598.479C966.439 598.479 973.297 596.066 979.012 591.114V597.336H988.156V554.545C988.156 540.323 979.139 532.451 963.01 532.451C955.263 532.451 947.77 534.355 938.626 538.799L942.182 546.037C949.802 542.101 955.898 540.45 962.121 540.45C973.17 540.45 979.012 545.656 979.012 555.814V564.195C973.551 561.401 967.074 559.878 960.343 559.878C944.722 559.878 934.943 567.369 934.943 579.305C934.943 590.733 944.468 598.479 958.438 598.479ZM943.96 579.051C943.96 571.56 950.437 566.735 960.597 566.735C967.963 566.735 973.805 568.258 979.012 571.814V583.75C973.932 588.829 967.709 591.114 960.089 591.114C950.564 591.114 943.96 586.162 943.96 579.051Z" fill="#4C4F5F"/>
<path d="M1064.43 565.465C1064.43 547.053 1050.46 532.704 1032.43 532.704C1024.43 532.704 1017.32 535.371 1011.98 540.45V506.293H1002.59V597.336H1011.86V590.987C1017.57 595.685 1024.81 598.352 1032.3 598.352C1050.46 598.352 1064.43 584.004 1064.43 565.465ZM1011.98 581.337V549.846C1016.43 544.259 1023.54 540.958 1031.54 540.958C1044.88 540.958 1055.16 551.624 1055.16 565.592C1055.16 579.559 1045 590.098 1031.54 590.098C1023.67 590.098 1016.43 586.797 1011.98 581.337Z" fill="#4C4F5F"/>
<path d="M1076.23 506.293V597.336H1085.62V506.293H1076.23Z" fill="#4C4F5F"/>
<path d="M1153.97 590.606L1148.13 584.384C1143.81 588.067 1137.21 590.225 1130.61 590.225C1118.03 590.225 1108.13 580.956 1106.73 568.385H1158.93V565.465C1158.93 547.18 1145.72 532.704 1128.83 532.704C1111.3 532.704 1097.46 547.18 1097.46 565.465C1097.46 584.131 1111.81 598.479 1130.23 598.479C1139.37 598.479 1146.86 595.939 1153.97 590.606ZM1106.98 560.894C1108.76 549.212 1117.53 540.958 1128.57 540.958C1139.12 540.958 1147.88 549.593 1149.53 560.894H1106.98Z" fill="#4C4F5F"/>
<path d="M1171.52 585.146C1167.97 585.146 1165.05 588.067 1165.05 591.622C1165.05 595.178 1167.97 598.098 1171.52 598.098C1175.08 598.098 1178 595.178 1178 591.622C1178 588.067 1175.08 585.146 1171.52 585.146Z" fill="#4C4F5F"/>
</g>
</g>
<defs>
<clipPath id="clip0_544_209">
<rect width="1250" height="663" fill="white"/>
</clipPath>
</defs>
</svg>
