<svg width="240" height="180" viewBox="0 0 917 469" fill="none" xmlns="http://www.w3.org/2000/svg">
<path d="M545.201 332.176H604.474V16.5H545.201V332.176Z" fill="#654BFF"/>
<path fill-rule="evenodd" clip-rule="evenodd" d="M268.212 219.743C268.212 285.905 321.428 336.5 388.489 336.5C455.55 336.5 508.767 285.905 508.767 219.743C508.767 154.014 455.983 102.554 388.489 102.554C320.995 102.554 268.212 154.014 268.212 219.743ZM326.187 219.743C326.187 182.986 353.877 154.014 388.489 154.014C423.101 154.014 450.791 182.986 450.791 219.743C450.791 256.068 423.101 285.041 388.489 285.041C353.877 285.041 326.187 256.068 326.187 219.743Z" fill="#654BFF"/>
<path fill-rule="evenodd" clip-rule="evenodd" d="M760.723 336.5C693.661 336.5 640.445 285.905 640.445 219.743C640.445 154.014 693.229 102.554 760.723 102.554C828.216 102.554 881 154.014 881 219.743C881 285.905 827.784 336.5 760.723 336.5ZM760.723 154.014C726.11 154.014 698.421 182.986 698.421 219.743C698.421 256.068 726.11 285.041 760.723 285.041C795.335 285.041 823.025 256.068 823.025 219.743C823.025 182.986 795.335 154.014 760.723 154.014Z" fill="#654BFF"/>
<path d="M16 332.176V29.4729H78.7346V181.257V332.176H16Z" fill="#654BFF"/>
<path d="M210.694 332.176L78.7346 181.257L211.126 29.4729H282.947L149.69 181.257L282.947 332.176H210.694Z" fill="#654BFF"/>
<path d="M65.294 407.14L66.666 400.574H31.092V376.564H71.272L72.644 369.9H23.546V438.5H71.664L73.036 431.836H31.092V407.14H65.294ZM125.193 389.402H117.451L100.693 429.092L83.9347 389.402H75.8987L97.1647 438.5H104.025L125.193 389.402ZM170.289 433.306L165.781 428.504C162.449 431.346 157.353 433.012 152.257 433.012C142.555 433.012 134.911 425.858 133.833 416.156H174.111V413.902C174.111 399.79 163.919 388.618 150.885 388.618C137.361 388.618 126.679 399.79 126.679 413.902C126.679 428.308 137.753 439.382 151.963 439.382C159.019 439.382 164.801 437.422 170.289 433.306ZM134.029 410.374C135.401 401.358 142.163 394.988 150.689 394.988C158.823 394.988 165.585 401.652 166.859 410.374H134.029ZM190.521 396.36V389.402H183.269V438.5H190.521V404.886C193.069 398.32 197.675 394.792 203.751 394.792C205.417 394.792 207.083 395.086 208.847 395.674V389.01C207.377 388.52 206.103 388.324 204.241 388.324C198.263 388.324 193.461 391.264 190.521 396.36ZM235.941 445.85L260.343 389.402H252.503L235.353 429.68L219.477 389.402H211.441L231.433 438.402L228.591 444.87C226.239 450.064 223.201 452.514 218.791 452.514C217.027 452.514 215.949 452.416 214.675 452.122V458.688C215.753 458.982 217.419 459.178 219.281 459.178C227.121 459.178 231.727 455.356 235.941 445.85ZM281.246 425.662V395.576H294.672L296.044 389.402H281.246V375.094H274.092V389.402H263.508V395.576H274.092V427.524C274.092 435.266 278.796 439.382 287.322 439.382C290.164 439.382 293.398 438.99 295.946 438.108V431.738C293.496 432.718 291.536 433.012 288.792 433.012C283.402 433.012 281.246 430.954 281.246 425.662ZM310.081 395.184V368.234H302.829V438.5H310.081V402.338C313.021 397.536 317.725 394.792 323.605 394.792C332.033 394.792 337.325 400.182 337.325 408.904V438.5H344.479V407.434C344.479 396.164 336.737 388.422 325.565 388.422C319.195 388.422 313.903 390.676 310.081 395.184ZM359.26 379.994C362.004 379.994 364.16 377.74 364.16 375.094C364.16 372.35 362.004 370.194 359.26 370.194C356.614 370.194 354.36 372.35 354.36 375.094C354.36 377.74 356.614 379.994 359.26 379.994ZM355.634 438.5H362.886V389.402H355.634V438.5ZM381.525 395.184V389.402H374.273V438.5H381.525V402.338C384.465 397.536 389.169 394.792 395.049 394.792C403.477 394.792 408.769 400.182 408.769 408.904V438.5H415.923V407.434C415.923 396.164 408.181 388.422 397.009 388.422C390.639 388.422 385.347 390.676 381.525 395.184ZM449.325 438.892C455.107 438.892 460.497 436.932 464.907 433.208V439.774C464.907 448.398 460.007 452.906 450.697 452.906C445.601 452.906 440.799 451.534 434.919 448.398L431.783 454.082C437.271 457.316 444.131 459.178 450.991 459.178C464.613 459.178 472.159 452.22 472.159 439.676V389.402H465.005V394.302C460.497 390.578 455.107 388.52 449.521 388.52C435.605 388.52 424.825 399.594 424.825 413.706C424.825 427.916 435.703 438.892 449.325 438.892ZM431.979 413.706C431.979 403.122 439.721 394.988 449.913 394.988C456.087 394.988 461.575 397.438 464.907 401.652V425.76C461.575 430.072 456.185 432.522 449.913 432.522C439.819 432.522 431.979 424.29 431.979 413.706ZM508.083 379.994C510.827 379.994 512.983 377.74 512.983 375.094C512.983 372.35 510.827 370.194 508.083 370.194C505.437 370.194 503.183 372.35 503.183 375.094C503.183 377.74 505.437 379.994 508.083 379.994ZM504.457 438.5H511.709V389.402H504.457V438.5ZM522.508 427.034L518.098 431.738C523.292 436.638 530.642 439.382 538.776 439.382C550.046 439.382 558.67 432.914 558.67 424.388C558.67 416.842 553.77 412.432 543.97 411.06L535.444 409.884C528.976 408.904 526.33 406.846 526.33 402.632C526.33 397.83 530.936 394.498 537.698 394.498C543.088 394.498 548.086 396.262 553.574 399.986L557.396 395.086C551.32 390.676 545.244 388.618 538.09 388.618C527.31 388.618 519.666 394.694 519.666 402.926C519.666 410.374 524.37 414.686 534.17 416.156L542.696 417.332C548.968 418.214 551.81 420.566 551.81 424.78C551.81 429.974 546.322 433.6 538.482 433.6C532.7 433.6 527.016 431.248 522.508 427.034ZM602.272 439.382C608.446 439.382 613.738 437.52 618.148 433.698V438.5H625.204V405.474C625.204 394.498 618.246 388.422 605.8 388.422C599.822 388.422 594.04 389.892 586.984 393.322L589.728 398.908C595.608 395.87 600.312 394.596 605.114 394.596C613.64 394.596 618.148 398.614 618.148 406.454V412.922C613.934 410.766 608.936 409.59 603.742 409.59C591.688 409.59 584.142 415.372 584.142 424.584C584.142 433.404 591.492 439.382 602.272 439.382ZM591.1 424.388C591.1 418.606 596.098 414.882 603.938 414.882C609.622 414.882 614.13 416.058 618.148 418.802V428.014C614.228 431.934 609.426 433.698 603.546 433.698C596.196 433.698 591.1 429.876 591.1 424.388ZM670.505 425.662V395.576H683.931L685.303 389.402H670.505V375.094H663.351V389.402H652.767V395.576H663.351V427.524C663.351 435.266 668.055 439.382 676.581 439.382C679.423 439.382 682.657 438.99 685.205 438.108V431.738C682.755 432.718 680.795 433.012 678.051 433.012C672.661 433.012 670.505 430.954 670.505 425.662ZM707.572 439.382C713.746 439.382 719.038 437.52 723.448 433.698V438.5H730.504V405.474C730.504 394.498 723.546 388.422 711.1 388.422C705.122 388.422 699.34 389.892 692.284 393.322L695.028 398.908C700.908 395.87 705.612 394.596 710.414 394.596C718.94 394.596 723.448 398.614 723.448 406.454V412.922C719.234 410.766 714.236 409.59 709.042 409.59C696.988 409.59 689.442 415.372 689.442 424.584C689.442 433.404 696.792 439.382 707.572 439.382ZM696.4 424.388C696.4 418.606 701.398 414.882 709.238 414.882C714.922 414.882 719.43 416.058 723.448 418.802V428.014C719.528 431.934 714.726 433.698 708.846 433.698C701.496 433.698 696.4 429.876 696.4 424.388ZM789.365 413.902C789.365 399.692 778.585 388.618 764.669 388.618C758.495 388.618 753.007 390.676 748.891 394.596V368.234H741.639V438.5H748.793V433.6C753.203 437.226 758.789 439.284 764.571 439.284C778.585 439.284 789.365 428.21 789.365 413.902ZM748.891 426.152V401.848C752.321 397.536 757.809 394.988 763.983 394.988C774.273 394.988 782.211 403.22 782.211 414C782.211 424.78 774.371 432.914 763.983 432.914C757.907 432.914 752.321 430.366 748.891 426.152ZM798.464 368.234V438.5H805.716V368.234H798.464ZM858.459 433.306L853.951 428.504C850.619 431.346 845.523 433.012 840.427 433.012C830.725 433.012 823.081 425.858 822.003 416.156H862.281V413.902C862.281 399.79 852.089 388.618 839.055 388.618C825.531 388.618 814.849 399.79 814.849 413.902C814.849 428.308 825.923 439.382 840.133 439.382C847.189 439.382 852.971 437.422 858.459 433.306ZM822.199 410.374C823.571 401.358 830.333 394.988 838.859 394.988C846.993 394.988 853.755 401.652 855.029 410.374H822.199ZM872.001 429.092C869.257 429.092 867.003 431.346 867.003 434.09C867.003 436.834 869.257 439.088 872.001 439.088C874.745 439.088 876.999 436.834 876.999 434.09C876.999 431.346 874.745 429.092 872.001 429.092Z" fill="black"/>
</svg>
