<svg width="240" height="180" viewBox="0 0 953 514" fill="none" xmlns="http://www.w3.org/2000/svg">
<path d="M953 505.729C953 510.147 949.418 513.729 945 513.729H8C3.58172 513.729 0 510.147 0 505.729V21.7013C0 17.283 3.58172 13.7013 8 13.7013H142.734C147.153 13.7013 150.734 17.283 150.734 21.7013V86.7671C150.734 88.6154 153.027 89.4746 154.242 88.0817L216.728 16.4427C218.247 14.7009 220.446 13.7013 222.757 13.7013H399.292C402.732 13.7013 404.568 17.7554 402.298 20.3403L327.272 105.798C325.666 107.628 328.783 111.129 330.88 109.891C355.812 95.1616 385.125 86.7824 416.488 86.7824C458.463 86.7824 496.764 101.79 525.807 126.94C527.122 128.079 529.201 127.158 529.201 125.418V21.7012C529.201 17.2829 532.783 13.7012 537.201 13.7012H668.475C672.893 13.7012 676.475 17.2829 676.475 21.7012V125.019C676.475 126.755 678.546 127.677 679.863 126.546C708.848 101.632 746.968 86.7824 788.723 86.7824C879.359 86.7824 952.869 156.752 953 247.729" fill="white"/>
<path d="M575.201 360.404H634.474V44.7285H575.201V360.404Z" fill="#654BFF"/>
<path fill-rule="evenodd" clip-rule="evenodd" d="M298.212 247.972C298.212 314.134 351.428 364.729 418.489 364.729C485.55 364.729 538.767 314.134 538.767 247.972C538.767 182.242 485.983 130.783 418.489 130.783C350.995 130.783 298.212 182.242 298.212 247.972ZM356.187 247.972C356.187 211.215 383.877 182.242 418.489 182.242C453.101 182.242 480.791 211.215 480.791 247.972C480.791 284.296 453.101 313.269 418.489 313.269C383.877 313.269 356.187 284.296 356.187 247.972Z" fill="#654BFF"/>
<path fill-rule="evenodd" clip-rule="evenodd" d="M790.723 364.729C723.661 364.729 670.445 314.134 670.445 247.972C670.445 182.242 723.229 130.783 790.723 130.783C858.216 130.783 911 182.242 911 247.972C911 314.134 857.784 364.729 790.723 364.729ZM790.723 182.242C756.11 182.242 728.421 211.215 728.421 247.972C728.421 284.296 756.11 313.269 790.723 313.269C825.335 313.269 853.025 284.296 853.025 247.972C853.025 211.215 825.335 182.242 790.723 182.242Z" fill="#654BFF"/>
<path d="M46 360.404V57.7014H108.735V209.485V360.404H46Z" fill="#654BFF"/>
<path d="M240.694 360.404L108.735 209.485L241.126 57.7014H312.947L179.69 209.485L312.947 360.404H240.694Z" fill="#654BFF"/>
<path d="M95.294 435.369L96.666 428.803H61.092V404.793H101.272L102.644 398.129H53.546V466.729H101.664L103.036 460.065H61.092V435.369H95.294ZM155.193 417.631H147.451L130.693 457.321L113.935 417.631H105.899L127.165 466.729H134.025L155.193 417.631ZM200.289 461.535L195.781 456.733C192.449 459.575 187.353 461.241 182.257 461.241C172.555 461.241 164.911 454.087 163.833 444.385H204.111V442.131C204.111 428.019 193.919 416.847 180.885 416.847C167.361 416.847 156.679 428.019 156.679 442.131C156.679 456.537 167.753 467.611 181.963 467.611C189.019 467.611 194.801 465.651 200.289 461.535ZM164.029 438.603C165.401 429.587 172.163 423.217 180.689 423.217C188.823 423.217 195.585 429.881 196.859 438.603H164.029ZM220.521 424.589V417.631H213.269V466.729H220.521V433.115C223.069 426.549 227.675 423.021 233.751 423.021C235.417 423.021 237.083 423.315 238.847 423.903V417.239C237.377 416.749 236.103 416.553 234.241 416.553C228.263 416.553 223.461 419.493 220.521 424.589ZM265.941 474.079L290.343 417.631H282.503L265.353 457.909L249.477 417.631H241.441L261.433 466.631L258.591 473.099C256.239 478.293 253.201 480.743 248.791 480.743C247.027 480.743 245.949 480.645 244.675 480.351V486.917C245.753 487.211 247.419 487.407 249.281 487.407C257.121 487.407 261.727 483.585 265.941 474.079ZM311.246 453.891V423.805H324.672L326.044 417.631H311.246V403.323H304.092V417.631H293.508V423.805H304.092V455.753C304.092 463.495 308.796 467.611 317.322 467.611C320.164 467.611 323.398 467.219 325.946 466.337V459.967C323.496 460.947 321.536 461.241 318.792 461.241C313.402 461.241 311.246 459.183 311.246 453.891ZM340.081 423.413V396.463H332.829V466.729H340.081V430.567C343.021 425.765 347.725 423.021 353.605 423.021C362.033 423.021 367.325 428.411 367.325 437.133V466.729H374.479V435.663C374.479 424.393 366.737 416.651 355.565 416.651C349.195 416.651 343.903 418.905 340.081 423.413ZM389.26 408.223C392.004 408.223 394.16 405.969 394.16 403.323C394.16 400.579 392.004 398.423 389.26 398.423C386.614 398.423 384.36 400.579 384.36 403.323C384.36 405.969 386.614 408.223 389.26 408.223ZM385.634 466.729H392.886V417.631H385.634V466.729ZM411.525 423.413V417.631H404.273V466.729H411.525V430.567C414.465 425.765 419.169 423.021 425.049 423.021C433.477 423.021 438.769 428.411 438.769 437.133V466.729H445.923V435.663C445.923 424.393 438.181 416.651 427.009 416.651C420.639 416.651 415.347 418.905 411.525 423.413ZM479.325 467.121C485.107 467.121 490.497 465.161 494.907 461.437V468.003C494.907 476.627 490.007 481.135 480.697 481.135C475.601 481.135 470.799 479.763 464.919 476.627L461.783 482.311C467.271 485.545 474.131 487.407 480.991 487.407C494.613 487.407 502.159 480.449 502.159 467.905V417.631H495.005V422.531C490.497 418.807 485.107 416.749 479.521 416.749C465.605 416.749 454.825 427.823 454.825 441.935C454.825 456.145 465.703 467.121 479.325 467.121ZM461.979 441.935C461.979 431.351 469.721 423.217 479.913 423.217C486.087 423.217 491.575 425.667 494.907 429.881V453.989C491.575 458.301 486.185 460.751 479.913 460.751C469.819 460.751 461.979 452.519 461.979 441.935ZM538.083 408.223C540.827 408.223 542.983 405.969 542.983 403.323C542.983 400.579 540.827 398.423 538.083 398.423C535.437 398.423 533.183 400.579 533.183 403.323C533.183 405.969 535.437 408.223 538.083 408.223ZM534.457 466.729H541.709V417.631H534.457V466.729ZM552.508 455.263L548.098 459.967C553.292 464.867 560.642 467.611 568.776 467.611C580.046 467.611 588.67 461.143 588.67 452.617C588.67 445.071 583.77 440.661 573.97 439.289L565.444 438.113C558.976 437.133 556.33 435.075 556.33 430.861C556.33 426.059 560.936 422.727 567.698 422.727C573.088 422.727 578.086 424.491 583.574 428.215L587.396 423.315C581.32 418.905 575.244 416.847 568.09 416.847C557.31 416.847 549.666 422.923 549.666 431.155C549.666 438.603 554.37 442.915 564.17 444.385L572.696 445.561C578.968 446.443 581.81 448.795 581.81 453.009C581.81 458.203 576.322 461.829 568.482 461.829C562.7 461.829 557.016 459.477 552.508 455.263ZM632.272 467.611C638.446 467.611 643.738 465.749 648.148 461.927V466.729H655.204V433.703C655.204 422.727 648.246 416.651 635.8 416.651C629.822 416.651 624.04 418.121 616.984 421.551L619.728 427.137C625.608 424.099 630.312 422.825 635.114 422.825C643.64 422.825 648.148 426.843 648.148 434.683V441.151C643.934 438.995 638.936 437.819 633.742 437.819C621.688 437.819 614.142 443.601 614.142 452.813C614.142 461.633 621.492 467.611 632.272 467.611ZM621.1 452.617C621.1 446.835 626.098 443.111 633.938 443.111C639.622 443.111 644.13 444.287 648.148 447.031V456.243C644.228 460.163 639.426 461.927 633.546 461.927C626.196 461.927 621.1 458.105 621.1 452.617ZM700.505 453.891V423.805H713.931L715.303 417.631H700.505V403.323H693.351V417.631H682.767V423.805H693.351V455.753C693.351 463.495 698.055 467.611 706.581 467.611C709.423 467.611 712.657 467.219 715.205 466.337V459.967C712.755 460.947 710.795 461.241 708.051 461.241C702.661 461.241 700.505 459.183 700.505 453.891ZM737.572 467.611C743.746 467.611 749.038 465.749 753.448 461.927V466.729H760.504V433.703C760.504 422.727 753.546 416.651 741.1 416.651C735.122 416.651 729.34 418.121 722.284 421.551L725.028 427.137C730.908 424.099 735.612 422.825 740.414 422.825C748.94 422.825 753.448 426.843 753.448 434.683V441.151C749.234 438.995 744.236 437.819 739.042 437.819C726.988 437.819 719.442 443.601 719.442 452.813C719.442 461.633 726.792 467.611 737.572 467.611ZM726.4 452.617C726.4 446.835 731.398 443.111 739.238 443.111C744.922 443.111 749.43 444.287 753.448 447.031V456.243C749.528 460.163 744.726 461.927 738.846 461.927C731.496 461.927 726.4 458.105 726.4 452.617ZM819.365 442.131C819.365 427.921 808.585 416.847 794.669 416.847C788.495 416.847 783.007 418.905 778.891 422.825V396.463H771.639V466.729H778.793V461.829C783.203 465.455 788.789 467.513 794.571 467.513C808.585 467.513 819.365 456.439 819.365 442.131ZM778.891 454.381V430.077C782.321 425.765 787.809 423.217 793.983 423.217C804.273 423.217 812.211 431.449 812.211 442.229C812.211 453.009 804.371 461.143 793.983 461.143C787.907 461.143 782.321 458.595 778.891 454.381ZM828.464 396.463V466.729H835.716V396.463H828.464ZM888.459 461.535L883.951 456.733C880.619 459.575 875.523 461.241 870.427 461.241C860.725 461.241 853.081 454.087 852.003 444.385H892.281V442.131C892.281 428.019 882.089 416.847 869.055 416.847C855.531 416.847 844.849 428.019 844.849 442.131C844.849 456.537 855.923 467.611 870.133 467.611C877.189 467.611 882.971 465.651 888.459 461.535ZM852.199 438.603C853.571 429.587 860.333 423.217 868.859 423.217C876.993 423.217 883.755 429.881 885.029 438.603H852.199ZM902.001 457.321C899.257 457.321 897.003 459.575 897.003 462.319C897.003 465.063 899.257 467.317 902.001 467.317C904.745 467.317 906.999 465.063 906.999 462.319C906.999 459.575 904.745 457.321 902.001 457.321Z" fill="black"/>
</svg>
