<svg width="240" height="180" viewBox="0 0 954 514" fill="none" xmlns="http://www.w3.org/2000/svg">
<path d="M953.379 505.729C953.379 510.147 949.797 513.729 945.379 513.729H8.3789C3.96062 513.729 0.378906 510.147 0.378906 505.729V21.7012C0.378906 17.2829 3.96063 13.7012 8.37891 13.7012H143.113C147.532 13.7012 151.113 17.2829 151.113 21.7012V86.767C151.113 88.6152 153.406 89.4745 154.62 88.0816L217.107 16.4426C218.626 14.7008 220.824 13.7012 223.136 13.7012H399.671C403.111 13.7012 404.947 17.7553 402.677 20.3402L327.651 105.798C326.045 107.628 329.162 111.129 331.259 109.89C356.191 95.1615 385.504 86.7822 416.867 86.7822C458.842 86.7822 497.143 101.789 526.186 126.94C527.501 128.079 529.58 127.158 529.58 125.418V21.701C529.58 17.2828 533.162 13.701 537.58 13.701H668.854C673.272 13.701 676.854 17.2828 676.854 21.701V125.018C676.854 126.755 678.924 127.677 680.241 126.545C709.227 101.632 747.347 86.7822 789.102 86.7822C879.738 86.7822 953.248 156.752 953.379 247.729" fill="white"/>
<path d="M575.58 360.404H634.853V44.7285H575.58V360.404Z" fill="#654BFF"/>
<path fill-rule="evenodd" clip-rule="evenodd" d="M298.591 247.972C298.591 314.134 351.807 364.729 418.868 364.729C485.929 364.729 539.146 314.134 539.146 247.972C539.146 182.242 486.362 130.783 418.868 130.783C351.374 130.783 298.591 182.242 298.591 247.972ZM356.566 247.972C356.566 211.215 384.256 182.242 418.868 182.242C453.48 182.242 481.17 211.215 481.17 247.972C481.17 284.296 453.48 313.269 418.868 313.269C384.256 313.269 356.566 284.296 356.566 247.972Z" fill="#654BFF"/>
<path fill-rule="evenodd" clip-rule="evenodd" d="M791.101 364.729C724.04 364.729 670.824 314.134 670.824 247.972C670.824 182.242 723.608 130.783 791.101 130.783C858.595 130.783 911.379 182.242 911.379 247.972C911.379 314.134 858.163 364.729 791.101 364.729ZM791.101 182.242C756.489 182.242 728.799 211.215 728.799 247.972C728.799 284.296 756.489 313.269 791.101 313.269C825.714 313.269 853.403 284.296 853.403 247.972C853.403 211.215 825.714 182.242 791.101 182.242Z" fill="#654BFF"/>
<path d="M46.3789 360.404V57.7014H109.114V209.485V360.404H46.3789Z" fill="#654BFF"/>
<path d="M241.073 360.404L109.114 209.485L241.505 57.7014H313.326L180.069 209.485L313.326 360.404H241.073Z" fill="#654BFF"/>
<path d="M95.6729 435.369L97.0449 428.803H61.4709V404.793H101.651L103.023 398.129H53.9249V466.729H102.043L103.415 460.065H61.4709V435.369H95.6729ZM155.572 417.631H147.83L131.072 457.321L114.314 417.631H106.278L127.544 466.729H134.404L155.572 417.631ZM200.668 461.535L196.16 456.733C192.828 459.575 187.732 461.241 182.636 461.241C172.934 461.241 165.29 454.087 164.212 444.385H204.49V442.131C204.49 428.019 194.298 416.847 181.264 416.847C167.74 416.847 157.058 428.019 157.058 442.131C157.058 456.537 168.132 467.611 182.342 467.611C189.398 467.611 195.18 465.651 200.668 461.535ZM164.408 438.603C165.78 429.587 172.542 423.217 181.068 423.217C189.202 423.217 195.964 429.881 197.238 438.603H164.408ZM220.9 424.589V417.631H213.648V466.729H220.9V433.115C223.448 426.549 228.054 423.021 234.13 423.021C235.796 423.021 237.462 423.315 239.226 423.903V417.239C237.756 416.749 236.482 416.553 234.62 416.553C228.642 416.553 223.84 419.493 220.9 424.589ZM266.32 474.079L290.722 417.631H282.882L265.732 457.909L249.856 417.631H241.82L261.812 466.631L258.97 473.099C256.618 478.293 253.58 480.743 249.17 480.743C247.406 480.743 246.328 480.645 245.054 480.351V486.917C246.132 487.211 247.798 487.407 249.66 487.407C257.5 487.407 262.106 483.585 266.32 474.079ZM311.625 453.891V423.805H325.051L326.423 417.631H311.625V403.323H304.471V417.631H293.887V423.805H304.471V455.753C304.471 463.495 309.175 467.611 317.701 467.611C320.543 467.611 323.777 467.219 326.325 466.337V459.967C323.875 460.947 321.915 461.241 319.171 461.241C313.781 461.241 311.625 459.183 311.625 453.891ZM340.46 423.413V396.463H333.208V466.729H340.46V430.567C343.4 425.765 348.104 423.021 353.984 423.021C362.412 423.021 367.704 428.411 367.704 437.133V466.729H374.858V435.663C374.858 424.393 367.116 416.651 355.944 416.651C349.574 416.651 344.282 418.905 340.46 423.413ZM389.639 408.223C392.383 408.223 394.539 405.969 394.539 403.323C394.539 400.579 392.383 398.423 389.639 398.423C386.993 398.423 384.739 400.579 384.739 403.323C384.739 405.969 386.993 408.223 389.639 408.223ZM386.013 466.729H393.265V417.631H386.013V466.729ZM411.904 423.413V417.631H404.652V466.729H411.904V430.567C414.844 425.765 419.548 423.021 425.428 423.021C433.856 423.021 439.148 428.411 439.148 437.133V466.729H446.302V435.663C446.302 424.393 438.56 416.651 427.388 416.651C421.018 416.651 415.726 418.905 411.904 423.413ZM479.704 467.121C485.486 467.121 490.876 465.161 495.286 461.437V468.003C495.286 476.627 490.386 481.135 481.076 481.135C475.98 481.135 471.178 479.763 465.298 476.627L462.162 482.311C467.65 485.545 474.51 487.407 481.37 487.407C494.992 487.407 502.538 480.449 502.538 467.905V417.631H495.384V422.531C490.876 418.807 485.486 416.749 479.9 416.749C465.984 416.749 455.204 427.823 455.204 441.935C455.204 456.145 466.082 467.121 479.704 467.121ZM462.358 441.935C462.358 431.351 470.1 423.217 480.292 423.217C486.466 423.217 491.954 425.667 495.286 429.881V453.989C491.954 458.301 486.564 460.751 480.292 460.751C470.198 460.751 462.358 452.519 462.358 441.935ZM538.461 408.223C541.205 408.223 543.361 405.969 543.361 403.323C543.361 400.579 541.205 398.423 538.461 398.423C535.815 398.423 533.561 400.579 533.561 403.323C533.561 405.969 535.815 408.223 538.461 408.223ZM534.835 466.729H542.087V417.631H534.835V466.729ZM552.887 455.263L548.477 459.967C553.671 464.867 561.021 467.611 569.155 467.611C580.425 467.611 589.049 461.143 589.049 452.617C589.049 445.071 584.149 440.661 574.349 439.289L565.823 438.113C559.355 437.133 556.709 435.075 556.709 430.861C556.709 426.059 561.315 422.727 568.077 422.727C573.467 422.727 578.465 424.491 583.953 428.215L587.775 423.315C581.699 418.905 575.623 416.847 568.469 416.847C557.689 416.847 550.045 422.923 550.045 431.155C550.045 438.603 554.749 442.915 564.549 444.385L573.075 445.561C579.347 446.443 582.189 448.795 582.189 453.009C582.189 458.203 576.701 461.829 568.861 461.829C563.079 461.829 557.395 459.477 552.887 455.263ZM632.651 467.611C638.825 467.611 644.117 465.749 648.527 461.927V466.729H655.583V433.703C655.583 422.727 648.625 416.651 636.179 416.651C630.201 416.651 624.419 418.121 617.363 421.551L620.107 427.137C625.987 424.099 630.691 422.825 635.493 422.825C644.019 422.825 648.527 426.843 648.527 434.683V441.151C644.313 438.995 639.315 437.819 634.121 437.819C622.067 437.819 614.521 443.601 614.521 452.813C614.521 461.633 621.871 467.611 632.651 467.611ZM621.479 452.617C621.479 446.835 626.477 443.111 634.317 443.111C640.001 443.111 644.509 444.287 648.527 447.031V456.243C644.607 460.163 639.805 461.927 633.925 461.927C626.575 461.927 621.479 458.105 621.479 452.617ZM700.884 453.891V423.805H714.31L715.682 417.631H700.884V403.323H693.73V417.631H683.146V423.805H693.73V455.753C693.73 463.495 698.434 467.611 706.96 467.611C709.802 467.611 713.036 467.219 715.584 466.337V459.967C713.134 460.947 711.174 461.241 708.43 461.241C703.04 461.241 700.884 459.183 700.884 453.891ZM737.951 467.611C744.125 467.611 749.417 465.749 753.827 461.927V466.729H760.883V433.703C760.883 422.727 753.925 416.651 741.479 416.651C735.501 416.651 729.719 418.121 722.663 421.551L725.407 427.137C731.287 424.099 735.991 422.825 740.793 422.825C749.319 422.825 753.827 426.843 753.827 434.683V441.151C749.613 438.995 744.615 437.819 739.421 437.819C727.367 437.819 719.821 443.601 719.821 452.813C719.821 461.633 727.171 467.611 737.951 467.611ZM726.779 452.617C726.779 446.835 731.777 443.111 739.617 443.111C745.301 443.111 749.809 444.287 753.827 447.031V456.243C749.907 460.163 745.105 461.927 739.225 461.927C731.875 461.927 726.779 458.105 726.779 452.617ZM819.744 442.131C819.744 427.921 808.964 416.847 795.048 416.847C788.874 416.847 783.386 418.905 779.27 422.825V396.463H772.018V466.729H779.172V461.829C783.582 465.455 789.168 467.513 794.95 467.513C808.964 467.513 819.744 456.439 819.744 442.131ZM779.27 454.381V430.077C782.7 425.765 788.188 423.217 794.362 423.217C804.652 423.217 812.59 431.449 812.59 442.229C812.59 453.009 804.75 461.143 794.362 461.143C788.286 461.143 782.7 458.595 779.27 454.381ZM828.843 396.463V466.729H836.095V396.463H828.843ZM888.838 461.535L884.33 456.733C880.998 459.575 875.902 461.241 870.806 461.241C861.104 461.241 853.46 454.087 852.382 444.385H892.66V442.131C892.66 428.019 882.468 416.847 869.434 416.847C855.91 416.847 845.228 428.019 845.228 442.131C845.228 456.537 856.302 467.611 870.512 467.611C877.568 467.611 883.35 465.651 888.838 461.535ZM852.578 438.603C853.95 429.587 860.712 423.217 869.238 423.217C877.372 423.217 884.134 429.881 885.408 438.603H852.578ZM902.38 457.321C899.636 457.321 897.382 459.575 897.382 462.319C897.382 465.063 899.636 467.317 902.38 467.317C905.124 467.317 907.378 465.063 907.378 462.319C907.378 459.575 905.124 457.321 902.38 457.321Z" fill="#4C4F5F"/>
</svg>
